<svg width="25" height="23" viewBox="0 0 25 23" fill="none" xmlns="http://www.w3.org/2000/svg">
<path d="M12.6239 2.19517C12.1092 1.14891 11.5561 0.73673 10.5768 0.114686C8.22238 -0.195261 6.72566 0.00675737 5.459 2.19517L5.44129 2.37411C5.28911 3.9078 5.11546 5.65786 5.80018 7.04964C6.5679 7.87863 7.14643 8.38928 8.27779 8.53821C9.85131 8.55109 10.7532 8.52844 11.9842 7.4614C12.3286 6.86629 12.5495 6.48479 12.6762 6.07336C12.9026 5.33856 12.829 4.50829 12.6239 2.19517Z" fill="#ECECEF"/>
<path d="M14.9763 12.3619C14.3937 11.9493 13.7974 11.5569 13.1997 11.1672C9.82345 9.4548 5.79115 10.1478 3.00812 12.5461C2.22506 13.9255 2.22506 13.9255 2.23511 16.8378L2.26044 18.0372C2.26082 18.3834 2.24331 18.7422 2.22562 19.1047C2.15641 20.523 2.08445 21.9976 3.07075 23H6.48262L6.82381 16.065C6.98047 16.0878 7.1374 16.1099 7.29444 16.132C8.22047 16.2623 9.14992 16.3932 10.0451 16.661C11.4585 17.1901 12.8159 17.6914 14.3299 17.7988C15.2033 17.3398 15.902 17.0533 16.8728 16.81L20.4713 16.065L20.8125 23H24.2243C24.5842 22.6343 24.7543 22.4614 24.8476 22.253C24.9313 22.0663 24.9533 21.8511 24.995 21.4431L25 19.198L24.992 17.9722L25 16.7464L24.995 14.5013C24.9023 13.5951 24.9023 13.5951 23.4567 12.2075C21.7334 11.0471 19.3659 11.298 17.4006 11.5573C16.8359 11.9107 16.2679 12.2587 15.6947 12.5976L14.9763 12.3619Z" fill="#ECECEF"/>
<path d="M20.4925 3.07014C21.7046 3.37313 22.1808 3.93449 22.8595 4.96913C23.0978 5.95378 23.0978 6.75845 22.8595 7.74311C22.1808 8.77774 21.7046 9.33911 20.4925 9.64209C19.154 9.74 18.5363 9.55287 17.4005 8.78335C16.6434 7.62907 16.4592 7.00129 16.5556 5.64095C17.055 3.5773 18.5848 2.93061 20.4925 3.07014Z" fill="#ECECEF"/>
<path d="M2.96806 9.06375C4.18807 7.91392 4.6948 7.06194 4.77661 5.3159C3.74953 4.99195 3.45741 4.95372 2.38831 5.3159C1.35617 6.23373 0.58995 7.17438 0 8.43662C0.0597692 8.88612 0.0860332 9.08364 0.138895 9.27352C0.180332 9.42235 0.238113 9.56649 0.341187 9.82361C1.34969 9.77481 2.12957 9.66123 2.96806 9.06375Z" fill="#ECECEF"/>
</svg>
